<?xml version="1.0" encoding="UTF-8"?>
<!DOCTYPE svg PUBLIC "-//W3C//DTD SVG 1.1//EN" "http://www.w3.org/Graphics/SVG/1.1/DTD/svg11.dtd">
<!-- Creator: CorelDRAW 2019 (64-Bit) -->
<svg xmlns="http://www.w3.org/2000/svg" xml:space="preserve" width="3294px" height="1080px" version="1.1" style="shape-rendering:geometricPrecision; text-rendering:geometricPrecision; image-rendering:optimizeQuality; fill-rule:evenodd; clip-rule:evenodd"
viewBox="0 0 3294 1080.04"
 xmlns:xlink="http://www.w3.org/1999/xlink"
 xmlns:xodm="http://www.corel.com/coreldraw/odm/2003">
 <defs>
  <style type="text/css">
   <![CDATA[
    .fil2 {fill:#F3C800;fill-rule:nonzero}
    .fil1 {fill:#DB3537;fill-rule:nonzero}
    .fil0 {fill:#5E81C0;fill-rule:nonzero}
    .fil3 {fill:#41B04E;fill-rule:nonzero}
   ]]>
  </style>
 </defs>
 <g id="Layer_x0020_1">
  <metadata id="CorelCorpID_0Corel-Layer"/>
  <path class="fil0" d="M809.85 381.42l-384.36 0 0 114.06 272.59 0c-13.46,159.94 -146.53,228.15 -272.13,228.15 -160.7,0 -300.93,-126.45 -300.93,-303.66 0,-172.64 133.68,-305.59 301.28,-305.59 129.31,0 205.51,82.43 205.51,82.43l79.86 -82.7c0,0 -102.5,-114.11 -289.45,-114.11 -238.06,0 -422.22,200.91 -422.22,417.93 0,212.65 173.24,420.01 428.29,420.01 224.32,0 388.52,-153.67 388.52,-380.9 0,-47.95 -6.96,-75.65 -6.96,-75.65l0 0.03z"/>
  <path class="fil1" d="M1126.28 404.6c77.56,0 151.05,62.71 151.05,163.75 0,98.9 -73.18,163.38 -151.41,163.38 -85.95,0 -153.76,-68.84 -153.76,-164.17 0,-93.28 66.97,-162.96 154.12,-162.96l0 0zm-1.57 -105.78c-157.72,0 -270.74,123.3 -270.74,267.1 0,145.94 109.63,271.53 272.59,271.53 147.53,0 268.39,-112.76 268.39,-268.39 0,-178.38 -140.59,-270.24 -270.24,-270.24l0 0z"/>
  <path class="fil2" d="M1715.11 404.6c77.56,0 151.05,62.71 151.05,163.75 0,98.9 -73.18,163.38 -151.41,163.38 -85.95,0 -153.76,-68.84 -153.76,-164.17 0,-93.28 66.96,-162.96 154.12,-162.96l0 0zm-1.56 -105.78c-157.73,0 -270.76,123.3 -270.76,267.1 0,145.94 109.64,271.53 272.6,271.53 147.53,0 268.4,-112.76 268.4,-268.39 0,-178.38 -140.6,-270.24 -270.24,-270.24l0 0z"/>
  <path class="fil0" d="M2301.57 404.67c70.98,0 143.86,60.61 143.86,164.11 0,105.19 -72.73,163.16 -145.42,163.16 -77.18,0 -148.99,-62.66 -148.99,-162.17 0,-103.4 74.57,-165.1 150.55,-165.1l0 0zm-10.48 -105.57c-144.76,0 -258.55,126.79 -258.55,269.1 0,162.11 131.92,269.61 256.06,269.61 76.75,0 117.57,-30.47 147.7,-65.44l0 53.1c0,92.92 -56.41,148.56 -141.57,148.56 -82.27,0 -123.52,-61.17 -137.87,-95.88l-103.5 43.27c36.72,77.64 110.63,158.61 242.23,158.61 143.93,0 253.64,-90.66 253.64,-280.79l0 -483.94 -112.93 0 0 45.62c-34.71,-37.42 -82.19,-61.81 -145.21,-61.81l0 -0.01z"/>
  <path class="fil1" d="M3055.98 402.04c49.22,0 84.62,26.16 99.66,57.52l-241.16 100.8c-10.39,-78.03 63.53,-158.32 141.5,-158.32l0 0zm-4.69 -103.58c-136.57,0 -251.21,108.64 -251.21,268.96 0,169.63 127.8,270.24 264.32,270.24 113.94,0 183.88,-62.33 225.63,-118.19l-93.1 -61.94c-24.17,37.49 -64.55,74.13 -131.96,74.13 -75.71,0 -110.53,-41.46 -132.09,-81.62l361.12 -149.84 -18.75 -43.92c-34.89,-85.99 -116.26,-157.8 -223.95,-157.8l-0.01 -0.02z"/>
  <polygon class="fil3" points="2627.92,821.67 2746.53,821.67 2746.53,27.85 2627.92,27.85 "/>
 </g>
</svg>
