<svg width="138" height="32" viewBox="0 0 138 32" fill="none" xmlns="http://www.w3.org/2000/svg" xmlns:xlink="http://www.w3.org/1999/xlink">
 <path fill-rule="evenodd" clip-rule="evenodd" d="M20.6 32H11.4C5.1 32 0 26.9 0 20.6V11.4C0 5.1 5.1 0 11.4 0H20.6C26.9 0 32 5.1 32 11.4V20.6C32 26.9 26.9 32 20.6 32ZM18.4 16.8C18.4 18.2 17.1 19.8 16.1 20.6C14.8 19.4 13.8 18 13.8 16.8C13.8 14.9 15.3 13 16 12.4C16.8 13.1 18.3 15.2 18.4 16.8ZM23.8 7.8C26.1 10 27.3 13 27.3 16.1C27.4 19.8 25.5 23.4 22.2 25.5C22.0956 25.5626 22 25.6209 21.9085 25.6766C21.5617 25.8878 21.2748 26.0626 20.8 26.3C20 26.6 19.1 26.2 18.3 25.7C16.4 24.6 10.9 21.1 10.9 16.9C10.9 14.1 14.2 9.7 15.8 9.7C17.5 9.7 20.8 14.3 20.8 16.9C20.8 19.2 19.1 21.3 17.9 22.4C18.2701 22.5586 18.5843 22.7731 18.8721 22.9697C19.1287 23.1448 19.3643 23.3057 19.6 23.4C19.9 23.6 20.3 23.6 20.6 23.4C22.7 22.2 24.7 19.1 24.7 16C24.7 13.6 23.7 11.3 22 9.7C20.3 8 17.9 7.1 15.5 7.2C10.9 7.5 7.29999 11.3 7.19999 15.9C7.19999 19.7 9.49999 23 13.1 24.3L13.5 24.5C14.2 24.8 14.5 25.6 14.2 26.2C13.9 26.8 13.2 27.1 12.6 26.9C10.9 26.3 9.39999 25.5 8.19999 24.3C3.69999 20 3.49999 12.9 7.79999 8.3C12.1 3.7 19.2 3.5 23.8 7.8Z" fill="#23AB96">
 </path>
 <path fill-rule="evenodd" clip-rule="evenodd" d="M53 4C53 5.5 52.6 8 50.2 8H46.1V26C46.1 26 42.5001 26 42.5001 24.1V8.1H38.8001C36.2001 8 36.0001 9 36.0001 9C36.0001 9 35.3001 4.4 39.3001 4.5H49.7C52 4.5 53 4 53 4ZM56.8211 19.0922C57.8972 18.8524 58.9073 18.6274 59.2 18L59.1 22.8C58.2 23.1 57.3 23.3 56.3001 23.3C54.6001 23.3 53.7001 22.6 53.7001 21.3C53.7001 19.7875 55.3245 19.4256 56.8211 19.0922ZM59 15C59 13.9 58.4 13 56.2 13C53.7 13 51.4 13.9 51.4 16.3C50.7 15.5 50.3 14.4 50.3 13.4C50.3 10.8 53.7 10.1 56.1 10.1C60.4 10.1 62.8 11.9 62.8 15.2V26C62.1 25.7 61.3 25.5 60.6 25.5C59.934 25.5 59.2453 25.6132 58.5232 25.7318C57.7275 25.8626 56.8913 26 56 26C52.9 26 50 24.8 50 21.3C50 17.9536 53.034 17.2186 55.6033 16.5962C57.18 16.2142 58.5817 15.8747 59 15ZM75.7 24V15.5C75.7 13.9 75 13 72.8 13L72.6636 13.0136C71.7007 13.1095 70.6548 13.2136 69.7 13.5V25.9C69.7 25.9 66.2 25.9 66.2 24V10C67 10.5 67.9 10.7 68.8 10.7C69.5379 10.7 70.2274 10.5306 70.9281 10.3585C71.6517 10.1807 72.3871 10 73.2 10C76.2 10 79.3 11 79.3 14.9V25.9C79.3 25.9 75.7 25.8 75.7 24ZM82.8 10.2V24C82.8 25.9 86.4 25.9 86.4 25.9V12.1C86.4 10.2 83.1 10.2 82.8 10.2ZM84.6 4.4C85.7 4.4 86.6 5.3 86.6 6.4C86.5 7.4 85.7 8.3 84.6 8.4C83.5 8.4 82.6 7.5 82.6 6.4C82.6 5.3 83.5 4.4 84.6 4.4ZM101.6 24C101.6 25.9 105.2 25.9 105.2 25.9V6.2C105.2 4.3 101.6 4.3 101.6 4.3V13.5H93.9001V6.3C93.9001 4.4 90.4001 4.4 90.4001 4.4V24C90.4001 25.9 93.9001 25.9 93.9001 25.9V16.4H101.6V24ZM111.9 12.2V20.7C111.9 22.3 112.6 23.2 114.6 23.2C115.6 23.1 116.6 23 117.6 22.7V10.3C117.6 10.3 121.2 10.3 121.2 12.2V26C120.4 25.6 119.5 25.4 118.6 25.4C117.923 25.4 117.27 25.5402 116.595 25.685C115.873 25.8398 115.127 26 114.3 26C111.2 26 108.3 25 108.3 21.2V10.3C108.3 10.3 111.9 10.4 111.9 12.2ZM128.1 22.8C128.9 23.1 129.7 23.3 130.6 23.3C133 23.3 133.9 22.4 133.9 20.5V16.3C133.9 14.4 132.7 13.5 131.3 13.5C129.7 13.5 128.2 14.5 128.2 15.9L128.1 22.8ZM130.7 26C135.2 26 137.5 24.5 137.5 21.2V15.7C137.5 12.4 134.8 10.7 131.7 10.7C129.3 10.7 128.2 11.6 128.2 11.6V6.7C128.2 4.5 124.9 4.5 124.6 4.5V26C125.6 25.4 126.7 25.4 127.4 25.5C127.706 25.5556 127.988 25.6189 128.267 25.6813C128.991 25.8436 129.689 26 130.7 26Z" fill="#23AB96">
 </path>
</svg>